<?xml version="1.0" encoding="utf-8"?>
<svg viewBox="0 0 277 75" xmlns="http://www.w3.org/2000/svg">
  <defs/>
  <path style="fill: rgb(245, 208, 61);" d="M 9 -0.022 L 29 -0.022 C 31.612 -0.022 34.03 0.813 36 2.23 C 37.97 0.813 40.388 -0.022 43 -0.022 L 63 -0.022 C 67.971 -0.022 72 4.007 72 8.978 L 72 51.978 L 62 51.978 L 62 13.978 C 62 11.769 60.209 9.978 58 9.978 L 45 9.978 C 42.791 9.978 41 11.769 41 13.978 L 41 51.978 L 31 51.978 L 31 13.978 C 31 11.769 29.209 9.978 27 9.978 L 14 9.978 C 11.791 9.978 10 11.769 10 13.978 L 10 51.978 L 0 51.978 L 0 8.978 C 0 4.007 4.029 -0.022 9 -0.022 Z">
    <title>m</title>
  </path>
  <path style="fill: rgb(85, 180, 221);" d="M 91 -0.022 L 125 -0.022 C 129.971 -0.022 134 4.007 134 8.978 L 134 51.978 L 82 51.978 L 82 8.978 C 82 4.007 86.029 -0.022 91 -0.022 Z M 92 13.978 L 92 41.978 L 124 41.978 L 124 13.978 C 124 11.769 122.209 9.978 120 9.978 L 96 9.978 C 93.791 9.978 92 11.769 92 13.978 Z">
    <title>o</title>
  </path>
  <path d="M 164.5 51.978 L 174.5 51.978 L 174.5 51.907 L 174.641 51.978 L 198.236 4.861 C 198.217 4.851 198.198 4.841 198.179 4.832 L 198.244 4.701 C 198.636 3.918 198.747 3.067 198.616 2.266 C 197.974 0.913 196.596 -0.022 195 -0.022 L 192 -0.021 C 190.502 -0.022 189.196 0.802 188.511 2.021 C 188.499 2.021 188.487 2.02 188.475 2.02 L 169.484 39.943 L 150.493 2.02 C 150.481 2.02 150.469 2.021 150.457 2.021 C 149.772 0.802 148.466 -0.022 146.968 -0.021 L 143.968 -0.022 C 142.372 -0.022 140.994 0.913 140.352 2.266 C 140.221 3.067 140.332 3.918 140.724 4.701 L 140.789 4.832 C 140.77 4.841 140.751 4.851 140.732 4.861 L 164.327 51.978 L 164.5 51.891 L 164.5 51.978 Z" style="fill: rgb(71, 194, 92);">
    <title>v</title>
  </path>
  <path style="fill: rgb(189, 81, 155);" d="M 209 -0.022 L 211 -0.022 C 213.209 -0.022 215 1.769 215 3.978 L 215 51.978 L 205 51.978 L 205 3.978 C 205 1.769 206.791 -0.022 209 -0.022 Z">
    <title>i</title>
  </path>
  <path style="fill: rgb(222, 68, 63);" d="M 234 -0.022 L 268 -0.022 C 272.971 -0.022 277 4.007 277 8.978 L 277 21.978 C 277 26.949 272.971 30.978 268 30.978 L 241 30.978 L 241 20.978 L 263 20.978 C 265.209 20.978 267 19.187 267 16.978 L 267 13.978 C 267 11.769 265.209 9.978 263 9.978 L 239 9.978 C 236.791 9.978 235 11.769 235 13.978 L 235 41.978 L 277 41.978 L 277 51.978 L 225 51.978 L 225 8.978 C 225 4.007 229.029 -0.022 234 -0.022 Z">
    <title>e</title>
  </path>
  <g transform="matrix(1, 0, 0, 1, -0.000252, -102.227943)">
    <title>B</title>
    <path d="M 0 161.25 H 14 V 177.25 H 0 V 161.25 Z" style="fill: rgb(166, 166, 166);"/>
    <path d="M 47 161.25 H 61 V 168.25 H 47 V 161.25 Z" style="fill: rgb(38, 38, 38);"/>
    <path d="M 47 170.25 H 61 V 177.25 H 47 V 170.25 Z" style="fill: rgb(38, 38, 38);"/>
    <path d="M 0 161.25 H 61 V 163.25 H 0 V 161.25 Z" style="fill: rgb(64, 64, 64);"/>
    <path d="M 21 168.25 H 47 V 170.25 H 21 V 168.25 Z" style="fill: rgb(107, 107, 107);"/>
    <path d="M 0 175.25 H 61 V 177.25 H 0 V 175.25 Z" style="fill: rgb(64, 64, 64);"/>
  </g>
  <g transform="matrix(1, 0, 0, 1, -0.000252, -102.227943)">
    <title>A</title>
    <path d="M 72 161.25 H 86 V 177.25 H 72 V 161.25 Z" style="fill: rgb(166, 166, 166);"/>
    <path d="M 119 161.25 H 133 V 177.25 H 119 V 161.25 Z" style="fill: rgb(38, 38, 38);"/>
    <path d="M 72 161.25 H 133 V 163.25 H 72 V 161.25 Z" style="fill: rgb(64, 64, 64);"/>
    <path d="M 93 168.25 H 112 V 170.25 H 93 V 168.25 Z" style="fill: rgb(107, 107, 107);"/>
  </g>
  <g transform="matrix(1, 0, 0, 1, -0.000252, -102.227943)">
    <title>S</title>
    <path d="M 144 161.25 H 158 V 170.25 H 144 V 161.25 Z" style="fill: rgb(166, 166, 166);"/>
    <path d="M 191 168.25 H 205 V 177.25 H 191 V 168.25 Z" style="fill: rgb(38, 38, 38);"/>
    <path d="M 144 161.25 H 205 V 163.25 H 144 V 161.25 Z" style="fill: rgb(64, 64, 64);"/>
    <path d="M 144 168.25 H 205 V 170.25 H 144 V 168.25 Z" style="fill: rgb(107, 107, 107);"/>
    <path d="M 144 175.25 H 205 V 177.25 H 144 V 175.25 Z" style="fill: rgb(64, 64, 64);"/>
  </g>
  <g transform="matrix(1, 0, 0, 1, -0.000252, -102.172142)">
    <title>E</title>
    <path d="M 216 161.194 H 230 V 177.194 H 216 V 161.194 Z" style="fill: rgb(166, 166, 166);"/>
    <path d="M 216 161.194 H 277 V 163.194 H 216 V 161.194 Z" style="fill: rgb(64, 64, 64);"/>
    <path d="M 237 168.194 H 277 V 170.194 H 237 V 168.194 Z" style="fill: rgb(107, 107, 107);"/>
    <path d="M 216 175.194 H 277 V 177.194 H 216 V 175.194 Z" style="fill: rgb(64, 64, 64);"/>
  </g>
</svg>